<?xml version="1.0" encoding="utf-8"?>
<!-- Generator: Adobe Illustrator 19.0.0, SVG Export Plug-In . SVG Version: 6.00 Build 0)  -->
<svg version="1.1" id="Layer_1" xmlns="http://www.w3.org/2000/svg" xmlns:xlink="http://www.w3.org/1999/xlink" x="0px" y="0px"
	 viewBox="0 0 24 24" style="enable-background:new 0 0 24 24;" xml:space="preserve">
<style type="text/css">
	.st0{fill:#FFFFFF;}
</style>
<g id="XMLID_1_">
	<title>linkedin</title>
	<desc>Created with Sketch.</desc>
	<g id="Home_1_">
		<g id="Group-4_1_" transform="translate(-873.000000, -6212.000000)">
			<g id="XMLID_2_" transform="translate(549.000000, 6212.000000)">
				<path id="linkedin_1_" class="st0" d="M327.7,20.1h3.6V9.3h-3.6V20.1z M331.5,5.9c0-1.1-0.8-1.9-2-1.9s-2,0.8-2,1.9
					c0,1,0.8,1.9,2,1.9h0C330.8,7.8,331.5,6.9,331.5,5.9z M336.9,10.8L336.9,10.8L336.9,10.8C336.9,10.8,336.9,10.8,336.9,10.8
					L336.9,10.8z M336.9,10.8V9.3h-3.6c0,0,0,1,0,10.8h3.6V14c0-0.3,0-0.6,0.1-0.9c0.3-0.6,0.9-1.3,1.9-1.3c1.3,0,1.8,1,1.8,2.5v5.8
					h3.6v-6.2c0-3.3-1.8-4.9-4.2-4.9C338.2,9,337.4,10,336.9,10.8L336.9,10.8z M348,4.5v15c0,2.5-2,4.5-4.5,4.5h-15
					c-2.5,0-4.5-2-4.5-4.5v-15c0-2.5,2-4.5,4.5-4.5h15C346,0,348,2,348,4.5z"/>
			</g>
		</g>
	</g>
</g>
</svg>
