<?xml version="1.0" encoding="utf-8"?>
<!-- Generator: Adobe Illustrator 19.0.0, SVG Export Plug-In . SVG Version: 6.00 Build 0)  -->
<svg version="1.1" id="Layer_1" xmlns="http://www.w3.org/2000/svg" xmlns:xlink="http://www.w3.org/1999/xlink" x="0px" y="0px"
	 viewBox="0 0 83.7 59.4" style="enable-background:new 0 0 83.7 59.4;" xml:space="preserve">
<style type="text/css">
	.st0{fill:#FFFFFF;}
</style>
<path id="XMLID_6_" class="st0" d="M77.5,0H6.2C2.8,0,0,2.8,0,6.2v47c0,3.4,2.8,6.2,6.2,6.2h71.3c3.4,0,6.2-2.8,6.2-6.2v-47
	C83.7,2.8,80.9,0,77.5,0z M77.5,10.1L43.6,32.4c-0.5,0.3-1.1,0.5-1.7,0.5c-0.6,0-1.2-0.2-1.7-0.5L6.2,10.1c-1.5-1-1.9-2.9-0.9-4.4
	c1-1.5,3-1.9,4.4-0.9l32.2,21.1L74,4.8c1.4-1,3.4-0.6,4.4,0.9C79.4,7.1,79,9.1,77.5,10.1z"/>
</svg>
