<?xml version="1.0" encoding="utf-8"?>
<!-- Generator: Adobe Illustrator 19.0.0, SVG Export Plug-In . SVG Version: 6.00 Build 0)  -->
<svg version="1.1" id="Layer_1" xmlns="http://www.w3.org/2000/svg" xmlns:xlink="http://www.w3.org/1999/xlink" x="0px" y="0px"
	 viewBox="0 0 24 24" style="enable-background:new 0 0 24 24;" xml:space="preserve">
<style type="text/css">
	.st0{fill:#FFFFFF;}
</style>
<g id="XMLID_1_">
	<title>linkedin</title>
	<desc>Created with Sketch.</desc>
</g>
<text id="XMLID_36_" transform="matrix(1 0 0 1 60.2501 26.0361)"><tspan x="0" y="0" style="font-family:'LeelawadeeUI-Semilight'; font-size:18.8456px; letter-spacing:-1;">C</tspan><tspan x="10.6" y="0" style="font-family:'LeelawadeeUI-Semilight'; font-size:18.8456px;">v</tspan></text>
<path id="XMLID_40_" class="st0" d="M-21.2,5.9h-15c-2.5,0-4.5,2-4.5,4.5v15c0,2.5,2,4.5,4.5,4.5h15c2.5,0,4.5-2,4.5-4.5v-15
	C-16.7,7.9-18.7,5.9-21.2,5.9z M-29,25.1c-1,0.5-2.2,0.7-3.5,0.7c-1.8,0-3.3-0.5-4.2-1.6s-1.5-2.6-1.5-4.6c0-1.3,0.2-2.4,0.7-3.3
	c0.5-1,1.2-1.7,2.1-2.2c0.9-0.5,1.9-0.8,3.2-0.8c1.3,0,2.6,0.3,3.8,0.9l-1,2.6c-0.5-0.2-0.9-0.4-1.4-0.5c-0.5-0.1-0.9-0.2-1.5-0.2
	c-0.8,0-1.4,0.3-1.8,1c-0.4,0.6-0.7,1.5-0.7,2.7c0,2.3,0.9,3.5,2.7,3.5c0.5,0,1.1-0.1,1.6-0.2c0.5-0.2,1-0.3,1.5-0.5V25.1z
	 M-22.1,25.6h-3.2l-3.6-9.5h3.4l1.6,5.6c0,0,0,0.1,0,0.1c0,0.1,0,0.1,0.1,0.2c0,0.1,0,0.2,0,0.3c0,0.1,0,0.2,0,0.3h0.1
	c0-0.3,0-0.6,0.2-0.9l1.7-5.6h3.4L-22.1,25.6z"/>
<path id="XMLID_34_" class="st0" d="M19.5,0h-15C2,0,0,2,0,4.5v15C0,22,2,24,4.5,24h15c2.5,0,4.5-2,4.5-4.5v-15C24,2,22,0,19.5,0z
	 M13.6,16.2c2-0.2,4-1,4-4.4c0-1-0.3-1.8-0.9-2.4c0.1-0.2,0.4-1.1-0.1-2.4c0,0-0.7-0.2-2.4,0.9c-0.7-0.2-1.4-0.3-2.2-0.3
	c-0.7,0-1.5,0.1-2.2,0.3C8.1,6.7,7.4,7,7.4,7C6.9,8.2,7.2,9.1,7.3,9.3c-0.6,0.6-0.9,1.4-0.9,2.4c0,3.4,2,4.2,4,4.4
	c-0.3,0.2-0.5,0.6-0.6,1.2c-0.5,0.2-1.8,0.6-2.6-0.7c0,0-0.5-0.9-1.3-0.9c0,0-0.9,0-0.1,0.5c0,0,0.6,0.3,1,1.3c0,0,0.5,1.7,3,1.2
	c0,0.8,0,1.3,0,1.5c0,0.2-0.2,0.5-0.6,0.4c-3.5-1.2-6-4.6-6-8.5c0-5,3.9-9,8.8-9c4.8,0,8.8,4,8.8,9c0,4-2.5,7.3-6,8.5
	c-0.4,0.1-0.6-0.2-0.6-0.4c0-0.3,0-1.3,0-2.5C14.2,17,13.9,16.5,13.6,16.2z"/>
</svg>
