<?xml version="1.0" encoding="utf-8"?>
<!-- Generator: Adobe Illustrator 19.0.0, SVG Export Plug-In . SVG Version: 6.00 Build 0)  -->
<svg version="1.1" id="Layer_1" xmlns="http://www.w3.org/2000/svg" xmlns:xlink="http://www.w3.org/1999/xlink" x="0px" y="0px"
	 viewBox="0 0 24 24" style="enable-background:new 0 0 24 24;" xml:space="preserve">
<style type="text/css">
	.st0{fill:#FFFFFF;}
	.st1{fill:#3D5A98;}
</style>
<g id="XMLID_1_">
	<title>linkedin</title>
	<desc>Created with Sketch.</desc>
</g>
<text id="XMLID_36_" transform="matrix(1 0 0 1 60.2501 26.0361)"><tspan x="0" y="0" style="font-family:'LeelawadeeUI-Semilight'; font-size:18.8456px; letter-spacing:-1;">C</tspan><tspan x="10.6" y="0" style="font-family:'LeelawadeeUI-Semilight'; font-size:18.8456px;">v</tspan></text>
<path id="XMLID_40_" class="st0" d="M-21.2,5.9h-15c-2.5,0-4.5,2-4.5,4.5v15c0,2.5,2,4.5,4.5,4.5h15c2.5,0,4.5-2,4.5-4.5v-15
	C-16.7,7.9-18.7,5.9-21.2,5.9z M-29,25.1c-1,0.5-2.2,0.7-3.5,0.7c-1.8,0-3.3-0.5-4.2-1.6s-1.5-2.6-1.5-4.6c0-1.3,0.2-2.4,0.7-3.3
	c0.5-1,1.2-1.7,2.1-2.2c0.9-0.5,1.9-0.8,3.2-0.8c1.3,0,2.6,0.3,3.8,0.9l-1,2.6c-0.5-0.2-0.9-0.4-1.4-0.5c-0.5-0.1-0.9-0.2-1.5-0.2
	c-0.8,0-1.4,0.3-1.8,1c-0.4,0.6-0.7,1.5-0.7,2.7c0,2.3,0.9,3.5,2.7,3.5c0.5,0,1.1-0.1,1.6-0.2c0.5-0.2,1-0.3,1.5-0.5V25.1z
	 M-22.1,25.6h-3.2l-3.6-9.5h3.4l1.6,5.6c0,0,0,0.1,0,0.1c0,0.1,0,0.1,0.1,0.2c0,0.1,0,0.2,0,0.3c0,0.1,0,0.2,0,0.3h0.1
	c0-0.3,0-0.6,0.2-0.9l1.7-5.6h3.4L-22.1,25.6z"/>
<path id="Blue_1_" class="st1" d="M29-55.2c2.9,0,5.2-2.3,5.2-5.2v-84c0-2.9-2.3-5.2-5.2-5.2h-84c-2.9,0-5.2,2.3-5.2,5.2v84
	c0,2.9,2.3,5.2,5.2,5.2H29z"/>
<path id="f" class="st0" d="M4.9-55.2v-36.6h12.3l1.8-14.3H4.9v-9.1c0-4.1,1.1-6.9,7.1-6.9l7.5,0v-12.7c-1.3-0.2-5.8-0.6-11-0.6
	c-10.9,0-18.3,6.6-18.3,18.8v10.5h-12.3v14.3h12.3v36.6H4.9z"/>
<path id="XMLID_4_" class="st0" d="M19.5,0h-15C2,0,0,2,0,4.5v15C0,22,2,24,4.5,24h8.2v-8.3h-3v-3.5h3V9.7c0-3,1.8-4.6,4.5-4.6
	c1.3,0,2.4,0.1,2.7,0.1v3.1l-1.8,0c-1.4,0-1.7,0.7-1.7,1.7v2.2h3.4l-0.4,3.5h-3V24h3.2c2.5,0,4.5-2,4.5-4.5v-15C24,2,22,0,19.5,0z"
	/>
</svg>
