<?xml version="1.0" encoding="utf-8"?>
<!-- Generator: Adobe Illustrator 19.0.0, SVG Export Plug-In . SVG Version: 6.00 Build 0)  -->
<svg version="1.1" id="Layer_1" xmlns="http://www.w3.org/2000/svg" xmlns:xlink="http://www.w3.org/1999/xlink" x="0px" y="0px"
	 viewBox="-106 33.1 110.1 152" style="enable-background:new -106 33.1 110.1 152;" xml:space="preserve">
<style type="text/css">
	.st0{fill:#FFFFFF;}
</style>
<g>
	<path id="XMLID_55_" class="st0" d="M-72.3,163.4c-2.5,0-3.1,2.4-3.1,5.2s0.9,5.2,3.1,5.2c2.2,0,3.1-2.3,3.1-5.2
		C-69.2,166.6-69.8,163.4-72.3,163.4z"/>
	<path id="XMLID_54_" class="st0" d="M-92.1,149.8h-1.4v1.5h1.4C-91.2,151.3-91.2,149.8-92.1,149.8z"/>
	<path id="XMLID_53_" class="st0" d="M-92.1,153.7h-1.4v1.9h1.4c0.8,0,1.2-0.4,1.2-0.9C-90.9,154.1-91.3,153.7-92.1,153.7z"/>
	<path id="XMLID_52_" class="st0" d="M-45.9,149.8c-1.4,0-1.8,1.2-1.8,2.8s0.5,2.9,1.8,2.9s1.8-1.2,1.8-2.9
		C-44.1,151.5-44.4,149.8-45.9,149.8z"/>
	<path id="XMLID_51_" class="st0" d="M-8.9,149.8h-1.4v1.9h1.4c0.6,0,0.9-0.5,0.9-0.9C-8,150.3-8.3,149.8-8.9,149.8z"/>
	<path class="st0" d="M2.3,33.1h-106.6c-1,0-1.7,0.7-1.7,1.7v148.6c0,0.9,0.7,1.7,1.7,1.7H2.4c0.9,0,1.7-0.7,1.7-1.7V34.8
		C4,33.8,3.3,33.1,2.3,33.1z M-36,40.5h9l-12.3,25.1c-1.2-0.3-2.5-0.6-3.7-0.8L-36,40.5z M-29,153.6v4.3h-2.8v-10.4h2.8v3.6h2.8
		v-3.6h2.8v10.4h-2.8v-4.3H-29z M-35.8,142.9l-6.1-20.8c1.6-0.3,3.3-0.6,4.9-1l10.4,21.7h-9.2V142.9z M-47.7,94
		c1.6,0,11.1,5.6,8.7,14.4c-0.6,2.1-1.9,2.6-2.5,2.3c-0.6-0.3-0.7-1.1-0.5-1.8C-39,101.2-46.1,94.9-47.7,94z M-51.4,95
		c-0.8,1.4-10.4,6.8-16.8,0.3c-1.6-1.6-1.3-2.9-0.7-3.3s1.3-0.1,1.8,0.5C-62,99-53,95.9-51.4,95z M-65.7,82.7c0.7,0,1.2,0.6,1.3,1.3
		c1.2,8.2,10.5,10,12.3,10c-1.4,0.8-12.4,0.7-14.7-8.1C-67.3,83.8-66.3,82.7-65.7,82.7z M-51.4,91.9c-1.4-0.8-6.8-10.4-0.4-16.8
		c1.6-1.6,2.9-1.3,3.3-0.7c0.4,0.6,0.1,1.3-0.5,1.8C-55.4,81.3-52.4,90.3-51.4,91.9z M-50.4,95.6c0,1.6-5.6,11.1-14.4,8.7
		c-2.1-0.6-2.6-1.9-2.3-2.5c0.3-0.6,1.1-0.7,1.8-0.5C-57.6,104.3-51.4,97.2-50.4,95.6z M-73.6,93.4c0,7.2,3.1,13.7,8.1,18.1
		c-14.9-5-25.3-15.3-25.3-15.3s9.7-12.3,23.6-19.1C-71.2,81.4-73.6,87.1-73.6,93.4z M-65.2,120.5c1.5,0.4,2.9,0.8,4.4,1.1l-5.9,21.2
		h-8.8L-65.2,120.5z M-68.5,147.5h4.2c2.1,0,3.7,0.9,3.6,2.9c0,0.8-0.5,1.6-1.3,1.9c1.1,0.4,1.8,1.3,1.8,2.4c0,2.3-1.9,3.1-4,3.1
		h-4.3V147.5z M-60.6,109.2c0-0.7,0.6-1.2,1.3-1.3c8.2-1.2,10-10.5,10-12.3c0.8,1.4,0.7,12.4-8.1,14.7
		C-59.6,110.8-60.6,109.9-60.6,109.2z M-48.3,91.9c0.8-1.4,10.4-6.8,16.8-0.3c1.6,1.6,1.3,2.9,0.7,3.3c-0.6,0.4-1.3,0.1-1.8-0.5
		C-37.8,87.9-46.7,90.9-48.3,91.9z M-34.1,104.2c-0.7,0-1.2-0.6-1.3-1.3c-1.2-8.2-10.5-10-12.3-10c1.4-0.8,12.4-0.7,14.7,8.1
		C-32.5,103.1-33.4,104.2-34.1,104.2z M-32.7,85.2c-0.3,0.6-1.1,0.7-1.8,0.5c-7.7-3-13.9,4.1-14.9,5.7c0-1.6,5.6-11.1,14.4-8.7
		C-32.8,83.2-32.4,84.6-32.7,85.2z M-59.2,147.5h4.2c3,0,3.8,1,3.8,2.9c0,1.6-0.8,2.5-1.9,2.9c1.2,0.3,2.6,4.6,2.6,4.6h-3.2
		c0,0-0.8-2.7-2.1-4.2h-0.6v4.2h-2.8V147.5z M-54.9,142.9l1.3-20.2c1.2,0.1,2.3,0.1,3.5,0.1c0.2,0,0.4,0,0.6,0l1.8,20.1H-54.9z
		 M-48,111.8c-1.6,1.6-2.9,1.3-3.3,0.7c-0.4-0.6-0.1-1.3,0.5-1.8c6.5-5.1,3.5-14.1,2.5-15.7C-46.9,95.8-41.5,105.4-48,111.8z
		 M-26.2,93.4c0-6.3-2.4-12.1-6.4-16.4C-18.7,83.9-9,96.3-9,96.3s-10.4,10-25.1,15.1C-29.2,107-26.2,100.6-26.2,93.4z M-42.3,76.6
		c2.2-0.6,3.2,0.4,3.2,1c0,0.7-0.6,1.2-1.3,1.3c-8.2,1.2-10,10.5-10,12.3C-51.3,89.9-51.1,78.9-42.3,76.6z M-47.1,40.5l-2.8,23.6
		l0,0c-1,0-2.1,0-3.1,0.1l-2.5-23.7H-47.1z M-58.2,76.2c0.6,0.3,0.7,1.1,0.5,1.8c-3,7.7,4.1,13.9,5.7,14.9c-1.6,0-11.1-5.6-8.7-14.4
		C-60.1,76.4-58.8,75.9-58.2,76.2z M-67.5,40.5l7.6,25c-1.3,0.3-2.6,0.7-3.9,1.2l-12.6-26.2H-67.5z M-99.1,40.5h6.5l22.7,28.6
		c-1.4,0.7-2.7,1.4-4,2.1l-25.2-21.4V40.5z M-99.1,66.1l18,9.9c-1.9,1.4-3.8,2.9-5.5,4.4l-12.5-4.8V66.1z M-99.1,87.3l4.9,0.3
		c-2,2.1-3.6,4-4.9,5.5V87.3z M-99.1,108l6.1-2.2c2,1.6,4.2,3.2,6.7,4.8l-12.8,7.3V108z M-99.1,133.7l21.3-18.1
		c1.6,0.8,3.2,1.6,4.9,2.3l-19.9,25h-6.3V133.7z M-84,147.5v10.4h-2.8v-10.4H-84z M-87.9,154.8c0,2.3-1.9,3.1-4,3.1h-4.4v-10.4h4.2
		c2.8,0,3.7,0.9,3.6,2.9c0,0.8-0.5,1.6-1.3,1.9C-88.6,152.7-87.9,153.7-87.9,154.8z M-89.1,178.1c-5.2,0-8-3.8-8-9.5s2.7-9.4,8-9.4
		c4.1,0,6.5,2.1,7.4,6l-4.6,0.8c-0.3-1.7-1.1-2.4-2.8-2.4c-2.5,0-3.1,2.2-3.1,5c0,2.9,0.9,5.2,3.1,5.2c1.7,0,2.9-1.5,3.1-3.6
		l4.4,1.6C-82.5,175.5-85,178.1-89.1,178.1z M-82.7,152.7c0-3.3,1.6-5.5,4.7-5.5c2.4,0,3.6,1,4.2,3.2l-2.7,0.5
		c-0.3-0.9-0.5-1.1-1.5-1.1c-1.4,0-2,1.4-2,3s0.6,3,1.9,3c0.8,0,1.9-0.2,1.9-1.7h-1.9V152c2,0,2.3,0,4.3,0c0,0.8,0,3.4,0,4.2
		c-1.4,1.3-1.9,1.7-4.4,1.7C-81.1,157.9-82.7,156-82.7,152.7z M-72.3,178c-5.3,0-8.2-3.8-8.2-9.4s2.8-9.4,8.2-9.4
		c5.4,0,8.2,3.8,8.2,9.4S-67,178-72.3,178z M-48.4,177.6v-13.4l-3.1,13.4h-3.6l-3-13.4v13.4h-4.1v-18h6.6l2.4,10.7l2.4-10.7h6.4v18
		H-48.4z M-45.9,158.1c-3,0-4.7-2.2-4.7-5.4c0-3.3,1.6-5.4,4.7-5.4c3.1,0,4.7,2.2,4.7,5.4C-41.2,155.9-42.8,158.1-45.9,158.1z
		 M-36.8,177.6h-4.8v-17.9h4.8V177.6z M-35.5,157.9h-2.8v-7.8H-41v-2.6h8.2v2.6h-2.7V157.9z M-26.4,178.1c-5.2,0-8-3.8-8-9.5
		s2.7-9.4,8-9.4c4.1,0,6.5,2.1,7.4,6l-4.6,0.8c-0.3-1.7-1.1-2.4-2.8-2.4c-2.5,0-3.1,2.2-3.1,5c0,2.9,0.9,5.2,3.1,5.2
		c1.7,0,2.9-1.5,3.1-3.6l4.4,1.6C-19.8,175.5-22.3,178.1-26.4,178.1z M-14.7,151.3v2.1h-4.2v2.1h4.5v2.3h-7.3v-10.4h7.3v2.3h-4.5
		v1.5L-14.7,151.3L-14.7,151.3z M-10.6,178c-5.6,0-7.5-2.9-7.5-6.4l4.7-0.4c0,1.8,1.4,3.2,2.8,3.2c1.1,0,2.1-0.7,2.1-1.9
		c0-3.2-9-1.3-9-8c0-4.1,2.9-5.3,6.7-5.3c3.9,0,6.4,1.4,6.4,5.4l-4.6,0.2c0-1-0.6-2.3-2.3-2.3c-0.8,0-1.6,0.3-1.6,1.4
		c0,2.7,9.1,0.7,9.1,7.8C-3.7,176.2-7.2,178-10.6,178z M-4.4,157.9h-3.2c0,0-0.8-2.7-2.1-4.2h-0.6v4.2h-2.8v-10.4h4.2
		c3,0,3.8,1,3.8,2.9c0,1.6-0.8,2.5-1.9,2.9C-5.8,153.6-4.4,157.9-4.4,157.9z M-2.6,142.9h-7.6l-19.4-24.1c1.7-0.7,3.4-1.4,5.1-2.1
		l21.9,19.2V142.9z M-2.6,118.3l-11.9-7.1c2.5-1.6,4.8-3.2,6.9-4.8l5.1,2.3L-2.6,118.3L-2.6,118.3z M-2.6,90.9
		c-1-1.1-2.1-2.3-3.3-3.5l3.3,0.1V90.9z M-2.6,74.9l-12,4.3c-1.7-1.4-3.6-2.9-5.5-4.2l17.5-9.2V74.9z M-2.6,48.4l-25.2,21.8
		c-1.3-0.7-2.7-1.4-4.1-2l21.6-27.7h7.7C-2.6,40.5-2.6,48.4-2.6,48.4z"/>
	<path id="XMLID_3_" class="st0" d="M-63.1,154.6c0-0.5-0.4-0.9-1.2-0.9h-1.3v1.9h1.3C-63.5,155.6-63.1,155.1-63.1,154.6z"/>
	<path id="XMLID_2_" class="st0" d="M-64.3,149.8h-1.3v1.5h1.3C-63.4,151.3-63.4,149.8-64.3,149.8z"/>
	<path id="XMLID_1_" class="st0" d="M-54.1,150.8c0-0.5-0.3-0.9-1-0.9h-1.4v1.9h1.5C-54.4,151.7-54.1,151.3-54.1,150.8z"/>
</g>
</svg>
