<?xml version="1.0" encoding="utf-8"?>
<!-- Generator: Adobe Illustrator 19.0.0, SVG Export Plug-In . SVG Version: 6.00 Build 0)  -->
<svg version="1.1" id="Layer_1" xmlns="http://www.w3.org/2000/svg" xmlns:xlink="http://www.w3.org/1999/xlink" x="0px" y="0px"
	 viewBox="-60 49 163.4 82.9" style="enable-background:new -60 49 163.4 82.9;" xml:space="preserve">
<style type="text/css">
	.st0{fill:#FFFFFF;}
</style>
<g>
	<g>
		<g id="Logo_13_">
			<g>
				<path class="st0" d="M53.5,126.7c0,1.1-1.1,1.8-2.3,2.3c-0.6,0.2-3.3,1.1-6.1,1.4c-2.9,0.4-5.9,0.4-6.4,0.4
					c-1.1,0-2.1-0.9-2.1-2V51.5c0-1.1,0.9-2.1,2.3-2.1c0.7,0,3.5,0.2,6.2,0.6c2.8,0.4,5.5,1.1,6.2,1.2c1.4,0.3,2.3,1.2,2.3,2.3v73.2
					H53.5z"/>
				<path class="st0" d="M28.4,85.9c0-1.1-0.9-2.1-2.1-2.1H9c-1.1,0-2.1,0.9-2.1,2.1v11.3c0,1.1,0.9,2.1,2.1,2.1h3.6v16.9
					c-0.7,0-1.8,0-3.2,0c-3.9-1.7-7.1-7.5-8.2-13.5c-1.1-5.9-1.4-13.1-0.4-18.2c0.9-5.1,3-11.7,6.4-15c3.3-3.3,7.9-4.8,11.8-4.8h6.2
					c1.1,0,2.1-0.9,2.1-2.1V51.1c0-1.1-0.9-2.1-2.1-2.1H19c0,0-0.6,0-1.5,0h-4.8c-0.2,0-0.4,0-0.5,0.1c-0.8,0-1.4,0.1-2,0.1
					c-6,0.7-14.5,5.2-19.9,13.1s-7.7,19.6-7.6,27.8s0.8,18.7,5.3,27.6c4.8,9.5,14.2,14.2,23.9,14.2c0.8,0,2,0,2.9,0h1.7h9.9
					c1.1,0,2.1-0.9,2.1-2.1V97.3l0,0l0,0V85.9H28.4z"/>
				<path class="st0" d="M-59.9,102.7v2c0,2.9-0.2,3.5,0.5,4.3c10,10.1,18.8,13.7,23.4,15.6c5.1,2.1,10.5,3.9,14.9,4.3
					c1.6,0.1,2.3,0,2.9-1.3c0.5-1.2,0.2-2.9,0.1-4c-0.1-0.9-0.9-4-1.4-5.6c-0.4-1.4-0.6-2-1.4-3.4c-0.3-0.6-0.9-1-1.5-1.2
					c-6.5-1.7-15.3-4.9-21.5-10c-0.4-0.4-0.7-0.9-0.7-1.4v-2.8c0-0.5,0.4-0.8,0.8-0.8c2.8,0,12.8,0.3,16.7,0.3
					c0.5,0,0.9-0.2,1.2-0.5s0.6-0.8,0.5-1.3c-0.2-2.7-0.2-3.6-0.3-6.1c0-2.6,0-3.5,0.3-6.1c0-0.5-0.2-1-0.5-1.3s-0.7-0.5-1.2-0.5
					c-3.9,0-13.9,0.3-16.7,0.3c-0.5,0-0.8-0.4-0.8-0.8v-2.8c0-0.6,0.2-1.1,0.7-1.4c6.3-5.1,15-8.3,21.5-10c0.6-0.2,1.2-0.6,1.5-1.2
					c0.8-1.4,1-2.1,1.4-3.4c0.5-1.6,1.3-4.7,1.4-5.6c0.1-1.1,0.5-2.8-0.1-4c-0.6-1.3-1.3-1.4-2.9-1.3c-4.4,0.4-9.8,2.1-14.9,4.3
					c-4.6,1.9-13.4,5.5-23.4,15.6c-0.8,0.8-0.5,1.5-0.5,4.4V102.7z"/>
				<path class="st0" d="M102.7,73.1C96.8,67.3,89.5,62,84.1,59.8c-5.4-2.2-12.9-6.1-20.6-6.4l0,0c-1.1,0-2.1,1-2.1,2.2v69.9
					c0,1.1,0.9,2.1,2.1,2.1c1.1,0,9.3-2.6,11.7-4c1.4-0.8,2.5-1.2,2.5-2.6V99.3h8.9v16.2c0,1.1,1.2,2.2,2.3,2
					c5.7-1,14.5-8.5,14.5-11.4v-31C103.3,75,103.5,74,102.7,73.1z M77.6,85.6V73.9c2.1,0.8,7.6,2.8,8.9,4.2v7.5H77.6z"/>
			</g>
		</g>
	</g>
</g>
</svg>
