<?xml version="1.0" encoding="utf-8"?>
<!-- Generator: Adobe Illustrator 19.0.0, SVG Export Plug-In . SVG Version: 6.00 Build 0)  -->
<svg version="1.1" id="Layer_1" xmlns="http://www.w3.org/2000/svg" xmlns:xlink="http://www.w3.org/1999/xlink" x="0px" y="0px"
	 viewBox="0 0 163 87.3" style="enable-background:new 0 0 163 87.3;" xml:space="preserve">
<style type="text/css">
	.st0{fill:#FFFFFF;}
</style>
<g id="XMLID_10_">
	<path id="XMLID_4_" class="st0" d="M69.5,56.9v20.9c0,1.2-0.6,2-1.7,2.6c-3.5,1.9-7.9,3.5-13.1,4.8s-10.7,2-16.5,2
		s-11.3-1.1-16.6-3.3S12.2,78.6,9,74.5c-6-7.9-9-18.2-9-30.8C0,36,1.2,29.2,3.5,23.3s5.4-10.4,9.3-13.7C20.4,3.2,29,0,38.9,0
		s18.3,2.2,25.3,6.5c1.1,0.7,1.7,1.6,1.7,2.7v15.4c0,1.2-0.6,1.8-1.8,1.8h-7c-1.2,0-1.8-0.6-1.7-1.8l0.4-8.3
		C50.6,12.6,45,10.8,39,10.8c-6,0-10.9,1.5-14.5,4.5c-3.7,3-6.2,6.7-7.5,11.1c-1.4,4.4-2,9.7-2,15.9c0,6.2,0.8,11.8,2.3,16.7
		c1.5,4.9,4.3,9,8.3,12.3s9.2,4.9,15.5,4.9c6.4,0,11.7-1.4,16-4.3v-15h-7.9c-1.2,0-1.8-0.6-1.8-1.8v-6.2c0-1.2,0.6-1.8,1.8-1.8H76
		c1.2,0,1.8,0.6,1.8,1.8v6.2c0,1.2-0.6,1.8-1.8,1.8H69.5z"/>
	<path id="XMLID_6_" class="st0" d="M79.7,85.4v-6c0-1.2,0.6-1.8,1.8-1.8H88v-64h-6.4c-1.2,0-1.8-0.6-1.8-1.8V5.5c0-1.3,0.6-2,1.8-2
		c9.9-0.4,19.2-0.6,28.1-0.6s16,1.7,21.3,5.1c5.3,3.4,7.9,8.3,7.9,14.6c0,4.6-1.4,8.6-4.3,12c-2.8,3.4-6.2,5.9-10,7.5
		c6.3,1,11.2,3.3,14.5,7c3.3,3.7,5,8.2,5,13.6c0,7-2.6,12.6-7.8,16.9c-5.2,4.3-12,6.8-20.6,7.3c-3.5,0.2-9.2,0.4-17,0.4H81.5
		C80.3,87.2,79.7,86.6,79.7,85.4z M101.9,12.8v25.4h4.7c12.2,0,18.2-4.2,18.2-12.7c0-4.8-1.5-8.1-4.4-9.9c-3-1.8-7.2-2.8-12.7-2.8
		H101.9z M101.9,48.4v29.3h5.5c7.2,0,12.8-1.1,16.8-3.4c4-2.3,6-6.3,6-12c0-9.3-6.5-13.9-19.5-13.9
		C110.7,48.4,101.9,48.4,101.9,48.4z"/>
	<path id="XMLID_3_" class="st0" d="M162.2,84.2h-11.4c-0.4,0-0.8-0.4-0.8-0.8V72.1c0-0.4,0.4-0.8,0.8-0.8h11.4
		c0.4,0,0.8,0.4,0.8,0.8v11.3C163,83.8,162.7,84.2,162.2,84.2z"/>
</g>
</svg>
