<?xml version="1.0" encoding="utf-8"?>
<!-- Generator: Adobe Illustrator 19.0.0, SVG Export Plug-In . SVG Version: 6.00 Build 0)  -->
<svg version="1.1" id="Layer_1" xmlns="http://www.w3.org/2000/svg" xmlns:xlink="http://www.w3.org/1999/xlink" x="0px" y="0px"
	 viewBox="-359 160 241 241" style="enable-background:new -359 160 241 241;" xml:space="preserve">
<style type="text/css">
	.st0{fill:#FFFFFF;}
</style>
<g>
	<path class="st0" d="M-209.3,285.3h-8.8v29.3h5.5c7.2,0,12.8-1.1,16.8-3.4s6-6.3,6-12C-189.8,289.9-196.3,285.3-209.3,285.3z"/>
	<path class="st0" d="M-195.2,262.4c0-4.8-1.5-8.1-4.4-9.9c-3-1.8-7.2-2.8-12.7-2.8h-5.8v25.4h4.7
		C-201.2,275.1-195.2,270.9-195.2,262.4z"/>
	<path class="st0" d="M-238.5,160c-66.6,0-120.5,53.9-120.5,120.5S-305.1,401-238.5,401S-118,347.1-118,280.5S-171.9,160-238.5,160z
		 M-242.2,292c0,1.2-0.6,1.8-1.8,1.8h-6.5v20.9c0,1.2-0.6,2-1.7,2.6c-3.5,1.9-7.9,3.5-13.1,4.8c-5.2,1.3-10.7,2-16.5,2
		s-11.3-1.1-16.6-3.3c-5.3-2.2-9.4-5.3-12.6-9.4c-6-7.9-9-18.2-9-30.8c0-7.7,1.2-14.5,3.5-20.4c2.3-5.9,5.4-10.4,9.3-13.7
		c7.6-6.4,16.2-9.6,26.1-9.6c9.9,0,18.3,2.2,25.3,6.5c1.1,0.7,1.7,1.6,1.7,2.7v15.4c0,1.2-0.6,1.8-1.8,1.8h-7
		c-1.2,0-1.8-0.6-1.7-1.8l0.4-8.3c-5.2-3.7-10.8-5.5-16.8-5.5s-10.9,1.5-14.5,4.5c-3.7,3-6.2,6.7-7.5,11.1c-1.4,4.4-2,9.7-2,15.9
		s0.8,11.8,2.3,16.7c1.5,4.9,4.3,9,8.3,12.3s9.2,4.9,15.5,4.9c6.4,0,11.7-1.4,16-4.3v-15h-7.9c-1.2,0-1.8-0.6-1.8-1.8v-6.2
		c0-1.2,0.6-1.8,1.8-1.8h26.8c1.2,0,1.8,0.6,1.8,1.8V292z M-183.7,316.5c-5.2,4.3-12,6.8-20.6,7.3c-3.5,0.2-9.2,0.4-17,0.4h-17.2
		c-1.2-0.1-1.8-0.7-1.8-1.9v-6c0-1.2,0.6-1.8,1.8-1.8h6.5v-64h-6.4c-1.2,0-1.8-0.6-1.8-1.8v-6.3c0-1.3,0.6-2,1.8-2
		c9.9-0.4,19.2-0.6,28.1-0.6c8.9,0,16,1.7,21.3,5.1c5.3,3.4,7.9,8.3,7.9,14.6c0,4.6-1.4,8.6-4.3,12c-2.8,3.4-6.2,5.9-10,7.5
		c6.3,1,11.2,3.3,14.5,7c3.3,3.7,5,8.2,5,13.6C-175.9,306.6-178.5,312.2-183.7,316.5z M-157,320.3c0,0.4-0.3,0.8-0.8,0.8h-11.4
		c-0.4,0-0.8-0.4-0.8-0.8V309c0-0.4,0.4-0.8,0.8-0.8h11.4c0.4,0,0.8,0.4,0.8,0.8V320.3z"/>
</g>
</svg>
