<?xml version="1.0" encoding="utf-8"?>
<!-- Generator: Adobe Illustrator 19.0.0, SVG Export Plug-In . SVG Version: 6.00 Build 0)  -->
<svg version="1.1" id="Layer_1" xmlns="http://www.w3.org/2000/svg" xmlns:xlink="http://www.w3.org/1999/xlink" x="0px" y="0px"
	 viewBox="0 0 241 241" style="enable-background:new 0 0 241 241;" xml:space="preserve">
<style type="text/css">
	.st0{fill:url(#XMLID_51_);}
	.st1{fill:#FFFFFF;}
	.st2{fill:#76BDDB;}
</style>
<linearGradient id="XMLID_51_" gradientUnits="userSpaceOnUse" x1="-1167.3142" y1="-563.6862" x2="-826.6254" y2="-563.6862" gradientTransform="matrix(-0.7305 0.6829 -0.6829 -0.7305 -992.7128 389.5991)">
	<stop  offset="0" style="stop-color:#99A3E8"/>
	<stop  offset="1" style="stop-color:#76BDDB"/>
</linearGradient>
<rect id="XMLID_13_" x="0" y="0" class="st0" width="241" height="241"/>
<g id="XMLID_10_">
	<path id="XMLID_4_" class="st1" d="M108.5,133.8v20.9c0,1.2-0.6,2-1.7,2.6c-3.5,1.9-7.9,3.5-13.1,4.8c-5.2,1.3-10.7,2-16.5,2
		c-5.8,0-11.3-1.1-16.6-3.3c-5.3-2.2-9.4-5.3-12.6-9.4c-6-7.9-9-18.2-9-30.8c0-7.7,1.2-14.5,3.5-20.4c2.3-5.9,5.4-10.4,9.3-13.7
		c7.6-6.4,16.2-9.6,26.1-9.6s18.3,2.2,25.3,6.5c1.1,0.7,1.7,1.6,1.7,2.7v15.4c0,1.2-0.6,1.8-1.8,1.8h-7c-1.2,0-1.8-0.6-1.7-1.8
		l0.4-8.3c-5.2-3.7-10.8-5.5-16.8-5.5c-6,0-10.9,1.5-14.5,4.5c-3.7,3-6.2,6.7-7.5,11.1c-1.4,4.4-2,9.7-2,15.9
		c0,6.2,0.8,11.8,2.3,16.7c1.5,4.9,4.3,9,8.3,12.3c4,3.3,9.2,4.9,15.5,4.9c6.4,0,11.7-1.4,16-4.3v-15h-7.9c-1.2,0-1.8-0.6-1.8-1.8
		v-6.2c0-1.2,0.6-1.8,1.8-1.8H115c1.2,0,1.8,0.6,1.8,1.8v6.2c0,1.2-0.6,1.8-1.8,1.8H108.5z"/>
	<path id="XMLID_6_" class="st1" d="M118.7,162.3v-6c0-1.2,0.6-1.8,1.8-1.8h6.5V90.5h-6.4c-1.2,0-1.8-0.6-1.8-1.8v-6.3
		c0-1.3,0.6-2,1.8-2c9.9-0.4,19.2-0.6,28.1-0.6s16,1.7,21.3,5.1c5.3,3.4,7.9,8.3,7.9,14.6c0,4.6-1.4,8.6-4.3,12
		c-2.8,3.4-6.2,5.9-10,7.5c6.3,1,11.2,3.3,14.5,7c3.3,3.7,5,8.2,5,13.6c0,7-2.6,12.6-7.8,16.9c-5.2,4.3-12,6.8-20.6,7.3
		c-3.5,0.2-9.2,0.4-17,0.4h-17.2C119.3,164.1,118.7,163.5,118.7,162.3z M140.9,89.7v25.4h4.7c12.2,0,18.2-4.2,18.2-12.7
		c0-4.8-1.5-8.1-4.4-9.9c-3-1.8-7.2-2.8-12.7-2.8H140.9z M140.9,125.3v29.3h5.5c7.2,0,12.8-1.1,16.8-3.4c4-2.3,6-6.3,6-12
		c0-9.3-6.5-13.9-19.5-13.9H140.9z"/>
	<path id="XMLID_3_" class="st1" d="M201.2,161.1h-11.4c-0.4,0-0.8-0.4-0.8-0.8V149c0-0.4,0.4-0.8,0.8-0.8h11.4
		c0.4,0,0.8,0.4,0.8,0.8v11.3C202,160.7,201.7,161.1,201.2,161.1z"/>
</g>
<rect id="XMLID_49_" x="-358.7" y="217.8" class="st2" width="155.1" height="117.7"/>
</svg>
