<?xml version="1.0" encoding="utf-8"?>
<!-- Generator: Adobe Illustrator 19.0.0, SVG Export Plug-In . SVG Version: 6.00 Build 0)  -->
<svg version="1.1" id="Layer_1" xmlns="http://www.w3.org/2000/svg" xmlns:xlink="http://www.w3.org/1999/xlink" x="0px" y="0px"
	 viewBox="0 0 1421.3 237.7" style="enable-background:new 0 0 1421.3 237.7;" xml:space="preserve">
<style type="text/css">
	.st0{fill:#FFFFFF;}
</style>
<path id="XMLID_357_" class="st0" d="M572,233.1c-17.2,0-34.4,0-51.6,0c-4.8,0-5-0.2-5-4.8c0-72.5,0-144.9,0-217.4
	c0-4.7,0.2-4.8,4.9-4.8c28.5,0,57.1-0.4,85.6,0.2c24.1,0.5,47.3,5.6,68.4,17.8c20.9,12.1,34.8,29.9,42.7,52.6
	c5,14.5,7.1,29.5,7.1,44.7c0,28.3-6.7,54.7-25.6,76.7c-16.4,19-37.6,29.6-62.2,33.5c-6.5,1-13.2,1.4-19.7,1.5
	C601.6,233.3,586.8,233.1,572,233.1C572,233.1,572,233.1,572,233.1z M594.3,120.3c0,12.8-0.1,25.5,0,38.3c0.1,9.7-1.5,8.9,8.9,8.7
	c20.1-0.4,36.1-13.4,40.2-32.9c2.5-11.7,1.5-23.2-2.7-34.4c-4.3-11.5-11.9-19.9-23.7-23.5c-5.9-1.8-12.2-2-18.4-2.9
	c-3.2-0.5-4.4,0.9-4.4,4.3C594.4,91.9,594.3,106.1,594.3,120.3z"/>
<path id="XMLID_354_" class="st0" d="M717.9,232.6c1.2-3.7,2.2-7.1,3.3-10.5c11.3-34.5,22.7-69,34-103.6
	c9.1-27.8,18.1-55.6,27.2-83.4c2.8-8.6,5.7-17.1,8.4-25.7c0.8-2.5,2.1-3.3,4.7-3.3c26.6,0.1,53.2,0.1,79.8,0c4,0,4.8,2.3,5.7,5.1
	c5.3,15.5,10.5,31,15.8,46.5c9.9,29.2,19.9,58.3,29.8,87.5c9.3,27.2,18.5,54.5,27.7,81.7c0.6,1.9,1.2,3.8,1.9,6.2
	c-1.8,0.1-3.1,0.2-4.4,0.2c-24.7,0-49.4-0.1-74,0.1c-3.7,0-5.3-1.2-6.1-4.8c-1.5-6.7-3.7-13.2-5.4-19.9c-0.7-2.7-2-3.7-4.8-3.7
	c-16.9,0.1-33.7,0.1-50.6,0c-2.8,0-4.1,1.1-4.7,3.8c-1.5,7.2-3.2,14.3-4.7,21.5c-0.4,2-1.2,3-3.3,3c-26.1,0-52.2,0-78.4-0.1
	C719.6,233.1,719.1,232.9,717.9,232.6z M821.4,150.5c9.1,0,17.4,0,25.6,0c4.3,0,4.5-0.3,3.6-4.6c-3.5-17.3-6.9-34.7-10.4-52
	c-1.2-5.9-2.4-11.8-3.6-17.6c-0.2,0-0.5,0-0.7,0C831.2,100.8,826.3,125.3,821.4,150.5z"/>
<path id="XMLID_353_" class="st0" d="M1026.8,139.9c6.5-25.5,12.9-51.1,19.4-76.6c4.5-17.6,9-35.2,13.3-52.9
	c0.8-3.3,2.2-4.5,5.6-4.5c24.3,0.1,48.6,0.1,73,0.1c1.3,0,2.6,0.2,4.3,0.3c-0.5,1.8-0.7,3.2-1.2,4.5
	c-14.4,39.6-28.9,79.1-43.4,118.7c-12.1,33.1-24.3,66.2-36.4,99.3c-1.2,3.2-2.9,4.4-6.3,4.3c-19.4-0.2-38.8-0.1-58.1,0
	c-3,0-4.4-1-5.4-3.8C975.8,186,960,142.5,944.2,99.1c-10.8-29.5-21.6-59-32.4-88.4c-1.5-4.1-1.3-4.6,3.1-4.6c23.8,0,47.7,0,71.5,0
	c5.8,0,5.8,0,7.2,5.6c7.8,30.7,15.5,61.4,23.3,92.1c3,12,6.1,24,9.2,36C1026.3,139.8,1026.5,139.9,1026.8,139.9z"/>
<path id="XMLID_352_" class="st0" d="M1268.1,155c2.1,1.6,3.7,3,5.4,4.3c12.2,9.5,25.4,17.1,40.9,19.6c5.8,1,12,0.8,17.9,0.3
	c7-0.6,11.6-5.3,12.2-11.2c0.7-7.1-2.9-13.2-10-15.3c-6.9-2.1-14-3.5-21.1-4.8c-13.9-2.6-27.1-6.4-38.6-15
	c-17.9-13.5-23.9-31.8-22.1-53.4c1.3-15.6,6.3-29.8,15.9-42.3c10.2-13.2,23.4-22.4,39-28.1c27.1-9.9,54.3-9,81.3,0.6
	c7.8,2.8,15,7.1,22.4,10.7c2.3,1.1,2.8,2.6,1.9,5c-5.9,15.9-11.8,31.8-17.6,47.7c-1.2,3.2-2.8,2.3-5,1.1c-7.9-4.5-15.7-9.3-24-13
	c-8.4-3.7-17.5-5.5-26.8-3.6c-6.4,1.3-11,5.5-11.5,10.4c-0.8,7,1.6,11.9,8.5,14.7c6.3,2.5,13.1,3.9,19.7,5.9c9.5,2.9,19.5,5,28.5,9
	c21.3,9.4,33.4,25.9,35.9,49.4c1.5,14.3-0.2,28.2-6.1,41.3c-10.6,23.8-30.2,37.1-54.5,44.2c-23.2,6.8-46.4,5.3-69.6,0.2
	c-14.7-3.2-29-8-42.5-14.9c-2.1-1.1-3.3-2.1-2.3-4.7c7-18.3,13.9-36.7,20.9-55C1267,157.1,1267.4,156.4,1268.1,155z"/>
<path id="XMLID_346_" class="st0" d="M27.1,97.4c0-23.5,0-46.9,0-70.4c0-6.1,0-6.1-5.8-8.3c-5.8-2.2-11.7-4.4-17.6-6.6
	c-2.2-0.8-4.6-1.8-3.5-4.4c0.5-1.2,3.2-2.2,4.9-2.2c8.3,0.3,16.6,1,24.8,1.4c9.6,0.4,19.2,0.8,28.9,0.6c14.8-0.3,29.6-1,44.3-1.5
	c0.7,0,1.6-0.4,2.1,0c1.2,0.7,2.8,1.5,3,2.6c0.2,0.9-1.1,2.7-2.1,3.1c-2.5,1.1-5.3,1.6-7.9,2.5c-5.4,1.8-10.7,3.8-16,5.6
	c-2.7,0.9-3.8,2.7-3.8,5.4c0,4.3,0,8.7,0,13c0,24.9,0,49.8,0.1,74.8c0.1,15.2-0.1,30.3,0.7,45.5c1.1,19.9,8.5,36.9,25.1,49
	c9.4,6.8,20.2,9.6,31.5,10.2c13,0.8,25.7-0.9,37.7-6.5c16-7.5,25.4-20.5,29.5-37.1c2-8.3,2.9-17.1,3-25.7c0.3-40.3,0.2-80.7,0.2-121
	c0-5.3-0.3-5.8-5.3-7.5c-5.8-2-11.6-4-17.4-6.1c-0.9-0.3-2.1-0.6-2.6-1.2c-0.8-1.2-1.9-2.9-1.5-3.9c0.3-1,2.4-2.1,3.6-2
	c15.3,0.2,30.5,0.9,45.8,1c8,0,16.1-0.9,24.1-1.3c1-0.1,2-0.3,2.9,0c1.3,0.5,2.5,1.4,3.7,2.1c-0.8,1.2-1.4,2.9-2.5,3.4
	c-4.2,2.1-8.6,3.8-12.9,5.7c-2.9,1.2-5.7,2.5-8.7,3.6c-3.9,1.4-5.5,3.9-5.5,8.2c0.1,31.2,0.2,62.4,0,93.5
	c-0.1,14.1-0.2,28.2-1.5,42.2c-1.7,17.4-8.7,32.8-21.3,45.2c-11,10.8-24.3,17.7-39.1,21.5c-29.2,7.4-58.6,8.2-87.8,0.1
	c-16.6-4.6-31.2-12.7-41.5-27.1c-8.2-11.4-11.7-24.2-11.8-38C26.9,143.4,27.1,120.4,27.1,97.4C27.1,97.4,27.1,97.4,27.1,97.4z"/>
<path id="XMLID_345_" class="st0" d="M381.5,236.7c-19.5,0.6-38.7-1.6-57.2-8c-34.4-11.9-57.3-35-65.2-70.9
	c-7.2-32.6-3.8-64.7,9.9-95.2c8.9-20,23.7-34.9,43-45.3C330.1,7.5,349.7,2.8,370.2,1c28.4-2.5,56.4-0.5,84,7.2c4.1,1.1,8.1,2.4,12,4
	c1.2,0.5,2.4,2.3,2.6,3.7c1.3,9,2.2,18.1,3.3,27.2c1.1,8.3,2.3,16.7,3.4,25c0.3,2.3,0.4,4.6,0.1,6.8c-0.1,1.1-1,2.8-1.9,3
	c-1,0.3-2.7-0.5-3.4-1.3c-1.6-2.1-3.1-4.3-4.1-6.7c-3.7-9-7.6-18-10.6-27.3c-2.9-8.8-8.7-13.9-17.1-17.1c-14-5.4-28.2-10-43.5-9.1
	c-27.9,1.6-49.3,14-63.3,38.5c-9.8,17.2-13.4,35.9-14.2,55.4c-0.8,18.9,1.2,37.5,7.8,55.4c6.8,18.5,17.1,34.5,34.3,45.1
	c9.1,5.7,19.2,9,30,9.6c19.2,1.1,37.7-1.8,54.9-10.9c10.9-5.8,18.5-14.4,22.8-26c2-5.3,4.1-10.5,6.4-15.7c0.9-2,1.8-5.3,4.9-4.3
	c3.1,1,2.4,4.1,1.9,6.6c-2.1,9.8-4.4,19.5-6.5,29.2c-1,4.6-2.3,9.1-2.9,13.8c-0.6,4.6-3.1,7.1-7.2,8.9c-13.4,5.7-27.2,9.8-41.6,11.7
	c-13.4,1.8-27,2.7-40.5,4C381.6,237.3,381.5,237,381.5,236.7z"/>
<path id="XMLID_344_" class="st0" d="M1150.3,119.6c0-36,0-72,0-108c0-5.5,0-5.5,5.6-5.5c22.8,0,45.5,0,68.3,0c4.7,0,5,0.2,5,4.8
	c0,72.5,0,144.9,0,217.4c0,4.6-0.2,4.8-4.6,4.8c-23.5,0-47-0.1-70.4,0.1c-3.3,0-3.9-1.1-3.9-4.2
	C1150.3,192.6,1150.3,156.1,1150.3,119.6z"/>
</svg>
