<?xml version="1.0" encoding="utf-8"?>
<!-- Generator: Adobe Illustrator 19.0.0, SVG Export Plug-In . SVG Version: 6.00 Build 0)  -->
<svg version="1.1" id="Layer_1" xmlns="http://www.w3.org/2000/svg" xmlns:xlink="http://www.w3.org/1999/xlink" x="0px" y="0px"
	 viewBox="-81 105 241 241" style="enable-background:new -81 105 241 241;" xml:space="preserve">
<style type="text/css">
	.st0{clip-path:url(#SVGID_3_);fill:url(#XMLID_17_);}
	.st1{fill:#FFFFFF;}
	.st2{fill:url(#XMLID_18_);}
	.st3{fill:url(#XMLID_19_);}
	.st4{fill:#76BDDB;}
	.st5{fill:#00B09B;}
	.st6{fill:#11B391;}
	.st7{fill:#21B686;}
	.st8{fill:#32B87C;}
	.st9{fill:#43BB71;}
	.st10{fill:#53BE67;}
	.st11{fill:#64C15C;}
	.st12{fill:#75C352;}
	.st13{fill:#85C647;}
	.st14{fill:#96C93D;}
</style>
<g>
	<defs>
		<circle id="SVGID_1_" cx="39.5" cy="225.5" r="118.5"/>
	</defs>
	<linearGradient id="SVGID_2_" gradientUnits="userSpaceOnUse" x1="-79" y1="225.5" x2="158" y2="225.5">
		<stop  offset="0" style="stop-color:#00B09B"/>
		<stop  offset="1" style="stop-color:#96C93D"/>
	</linearGradient>
	<use xlink:href="#SVGID_1_"  style="overflow:visible;fill:url(#SVGID_2_);"/>
	<clipPath id="SVGID_3_">
		<use xlink:href="#SVGID_1_"  style="overflow:visible;"/>
	</clipPath>
	
		<linearGradient id="XMLID_17_" gradientUnits="userSpaceOnUse" x1="-1806.775" y1="-698.1516" x2="-1471.7935" y2="-698.1516" gradientTransform="matrix(-0.7305 0.6829 -0.6829 -0.7305 -1634.7649 834.9675)">
		<stop  offset="0" style="stop-color:#00B09B"/>
		<stop  offset="1" style="stop-color:#96C93D"/>
	</linearGradient>
	<rect id="XMLID_13_" x="-79" y="107" class="st0" width="237" height="237"/>
</g>
<g id="XMLID_10_">
	<path id="XMLID_4_" class="st1" d="M26.2,240.3v23.2c0,1.3-0.7,2.2-1.9,2.9c-3.9,2.1-8.8,3.9-14.5,5.3c-5.8,1.4-11.9,2.2-18.3,2.2
		s-12.5-1.2-18.4-3.7c-5.9-2.4-10.4-5.9-14-10.4c-6.7-8.8-10-20.2-10-34.2c0-8.6,1.3-16.1,3.9-22.7c2.6-6.6,6-11.5,10.3-15.2
		c8.4-7.1,18-10.7,29-10.7s20.3,2.4,28.1,7.2c1.2,0.8,1.9,1.8,1.9,3v17.1c0,1.3-0.7,2-2,2h-7.8c-1.3,0-2-0.7-1.9-2l0.4-9.2
		c-5.8-4.1-12-6.1-18.7-6.1s-12.1,1.7-16.1,5c-4.1,3.3-6.9,7.4-8.3,12.3c-1.6,4.9-2.2,10.8-2.2,17.7c0,6.9,0.9,13.1,2.6,18.5
		c1.7,5.4,4.8,10,9.2,13.7c4.4,3.7,10.2,5.4,17.2,5.4c7.1,0,13-1.6,17.8-4.8v-16.7H3.6c-1.3,0-2-0.7-2-2v-6.9c0-1.3,0.7-2,2-2h29.8
		c1.3,0,2,0.7,2,2v6.9c0,1.3-0.7,2-2,2L26.2,240.3L26.2,240.3z"/>
	<path id="XMLID_6_" class="st1" d="M37.5,271.9v-6.7c0-1.3,0.7-2,2-2h7.2v-71.1h-7.1c-1.3,0-2-0.7-2-2v-7c0-1.4,0.7-2.2,2-2.2
		c11-0.4,21.3-0.7,31.2-0.7s17.8,1.9,23.7,5.7c5.9,3.8,8.8,9.2,8.8,16.2c0,5.1-1.6,9.5-4.8,13.3c-3.1,3.8-6.9,6.6-11.1,8.3
		c7,1.1,12.4,3.7,16.1,7.8c3.7,4.1,5.6,9.1,5.6,15.1c0,7.8-2.9,14-8.7,18.8S87,273,77.5,273.6c-3.9,0.2-10.2,0.4-18.9,0.4H39.5
		C38.2,273.9,37.5,273.2,37.5,271.9z M62.2,191.3v28.2h5.2c13.5,0,20.2-4.7,20.2-14.1c0-5.3-1.7-9-4.9-11c-3.3-2-8-3.1-14.1-3.1
		H62.2z M62.2,230.8v32.5h6.1c8,0,14.2-1.2,18.7-3.8c4.4-2.6,6.7-7,6.7-13.3c0-10.3-7.2-15.4-21.7-15.4
		C71.9,230.8,62.2,230.8,62.2,230.8z"/>
	<path id="XMLID_3_" class="st1" d="M129.1,270.6h-12.7c-0.4,0-0.9-0.4-0.9-0.9v-12.5c0-0.4,0.4-0.9,0.9-0.9h12.7
		c0.4,0,0.9,0.4,0.9,0.9v12.5C130,270.1,129.7,270.6,129.1,270.6z"/>
</g>
<linearGradient id="XMLID_18_" gradientUnits="userSpaceOnUse" x1="-2004.7781" y1="-489.3711" x2="-1664.1428" y2="-489.3711" gradientTransform="matrix(-0.7305 0.6829 -0.6829 -0.7305 -1634.7649 834.9675)">
	<stop  offset="0" style="stop-color:#00B09B"/>
	<stop  offset="1" style="stop-color:#64C2EC"/>
</linearGradient>
<rect id="XMLID_15_" x="-81" y="-180.8" class="st2" width="241" height="241"/>
<g id="XMLID_9_">
	<path id="XMLID_14_" class="st1" d="M27.5-47v20.9c0,1.2-0.6,2-1.7,2.6c-3.5,1.9-7.9,3.5-13.1,4.8s-10.7,2-16.5,2
		s-11.3-1.1-16.6-3.3c-5.3-2.2-9.4-5.3-12.6-9.4c-6-7.9-9-18.2-9-30.8c0-7.7,1.2-14.5,3.5-20.4s5.4-10.4,9.3-13.7
		c7.6-6.4,16.2-9.6,26.1-9.6s18.3,2.2,25.3,6.5c1.1,0.7,1.7,1.6,1.7,2.7v15.4c0,1.2-0.6,1.8-1.8,1.8h-7c-1.2,0-1.8-0.6-1.7-1.8
		l0.4-8.3C8.6-91.3,3-93.1-3-93.1s-10.9,1.5-14.5,4.5c-3.7,3-6.2,6.7-7.5,11.1c-1.4,4.4-2,9.7-2,15.9s0.8,11.8,2.3,16.7
		s4.3,9,8.3,12.3s9.2,4.9,15.5,4.9c6.4,0,11.7-1.4,16-4.3v-15H7.2c-1.2,0-1.8-0.6-1.8-1.8V-55c0-1.2,0.6-1.8,1.8-1.8H34
		c1.2,0,1.8,0.6,1.8,1.8v6.2c0,1.2-0.6,1.8-1.8,1.8L27.5-47L27.5-47z"/>
	<path id="XMLID_12_" class="st1" d="M37.7-18.5v-6c0-1.2,0.6-1.8,1.8-1.8H46v-64h-6.4c-1.2,0-1.8-0.6-1.8-1.8v-6.3
		c0-1.3,0.6-2,1.8-2c9.9-0.4,19.2-0.6,28.1-0.6s16,1.7,21.3,5.1s7.9,8.3,7.9,14.6c0,4.6-1.4,8.6-4.3,12c-2.8,3.4-6.2,5.9-10,7.5
		c6.3,1,11.2,3.3,14.5,7c3.3,3.7,5,8.2,5,13.6c0,7-2.6,12.6-7.8,16.9c-5.2,4.3-12,6.8-20.6,7.3c-3.5,0.2-9.2,0.4-17,0.4H39.5
		C38.3-16.7,37.7-17.3,37.7-18.5z M59.9-91.1v25.4h4.7c12.2,0,18.2-4.2,18.2-12.7c0-4.8-1.5-8.1-4.4-9.9c-3-1.8-7.2-2.8-12.7-2.8
		H59.9z M59.9-55.5v29.3h5.5c7.2,0,12.8-1.1,16.8-3.4c4-2.3,6-6.3,6-12c0-9.3-6.5-13.9-19.5-13.9C68.7-55.5,59.9-55.5,59.9-55.5z"/>
	<path id="XMLID_11_" class="st1" d="M120.2-19.7h-11.4c-0.4,0-0.8-0.4-0.8-0.8v-11.3c0-0.4,0.4-0.8,0.8-0.8h11.4
		c0.4,0,0.8,0.4,0.8,0.8v11.3C121-20.1,120.7-19.7,120.2-19.7z"/>
</g>
<linearGradient id="XMLID_19_" gradientUnits="userSpaceOnUse" x1="-1632.2875" y1="-268.1885" x2="-1291.6521" y2="-268.1885" gradientTransform="matrix(-0.7305 0.6829 -0.6829 -0.7305 -1634.7649 834.9675)">
	<stop  offset="0" style="stop-color:#99A3E8"/>
	<stop  offset="1" style="stop-color:#64C2EC"/>
</linearGradient>
<rect id="XMLID_8_" x="-504.2" y="-88" class="st3" width="241" height="241"/>
<g id="XMLID_1_">
	<path id="XMLID_7_" class="st1" d="M-395.7,45.8v20.9c0,1.2-0.6,2-1.7,2.6c-3.5,1.9-7.9,3.5-13.1,4.8c-5.2,1.3-10.7,2-16.5,2
		c-5.8,0-11.3-1.1-16.6-3.3c-5.3-2.2-9.4-5.3-12.6-9.4c-6-7.9-9-18.2-9-30.8c0-7.7,1.2-14.5,3.5-20.4s5.4-10.4,9.3-13.7
		c7.6-6.4,16.2-9.6,26.1-9.6S-408-8.9-401-4.6c1.1,0.7,1.7,1.6,1.7,2.7v15.4c0,1.2-0.6,1.8-1.8,1.8h-7c-1.2,0-1.8-0.6-1.7-1.8
		l0.4-8.3c-5.2-3.7-10.8-5.5-16.8-5.5s-10.9,1.5-14.5,4.5c-3.7,3-6.2,6.7-7.5,11.1c-1.4,4.4-2,9.7-2,15.9s0.8,11.8,2.3,16.7
		s4.3,9,8.3,12.3s9.2,4.9,15.5,4.9c6.4,0,11.7-1.4,16-4.3v-15h-7.9c-1.2,0-1.8-0.6-1.8-1.8v-6.2c0-1.2,0.6-1.8,1.8-1.8h26.8
		c1.2,0,1.8,0.6,1.8,1.8V44c0,1.2-0.6,1.8-1.8,1.8L-395.7,45.8L-395.7,45.8z"/>
	<path id="XMLID_5_" class="st1" d="M-385.5,74.3v-6c0-1.2,0.6-1.8,1.8-1.8h6.5v-64h-6.4c-1.2,0-1.8-0.6-1.8-1.8v-6.3
		c0-1.3,0.6-2,1.8-2c9.9-0.4,19.2-0.6,28.1-0.6c8.9,0,16,1.7,21.3,5.1s7.9,8.3,7.9,14.6c0,4.6-1.4,8.6-4.3,12
		c-2.8,3.4-6.2,5.9-10,7.5c6.3,1,11.2,3.3,14.5,7c3.3,3.7,5,8.2,5,13.6c0,7-2.6,12.6-7.8,16.9c-5.2,4.3-12,6.8-20.6,7.3
		c-3.5,0.2-9.2,0.4-17,0.4h-17.2C-384.9,76.1-385.5,75.5-385.5,74.3z M-363.3,1.7v25.4h4.7c12.2,0,18.2-4.2,18.2-12.7
		c0-4.8-1.5-8.1-4.4-9.9c-3-1.8-7.2-2.8-12.7-2.8H-363.3z M-363.3,37.3v29.3h5.5c7.2,0,12.8-1.1,16.8-3.4c4-2.3,6-6.3,6-12
		c0-9.3-6.5-13.9-19.5-13.9C-354.5,37.3-363.3,37.3-363.3,37.3z"/>
	<path id="XMLID_2_" class="st1" d="M-303,73.1h-11.4c-0.4,0-0.8-0.4-0.8-0.8V61c0-0.4,0.4-0.8,0.8-0.8h11.4c0.4,0,0.8,0.4,0.8,0.8
		v11.3C-302.2,72.7-302.5,73.1-303,73.1z"/>
</g>
<rect id="XMLID_49_" x="-581.7" y="332.8" class="st4" width="155.1" height="117.7"/>
<image style="overflow:visible;" width="32" height="32" xlink:href="favicon.png"  transform="matrix(1 0 0 1 -288 249)">
</image>
<rect x="24.2" y="-420" class="st5" width="38" height="193"/>
<rect x="111.3" y="-420" class="st6" width="38" height="193"/>
<rect x="198.4" y="-420" class="st7" width="38" height="193"/>
<rect x="285.5" y="-420" class="st8" width="38" height="193"/>
<rect x="372.6" y="-420" class="st9" width="38" height="193"/>
<rect x="459.7" y="-420" class="st10" width="38" height="193"/>
<rect x="546.8" y="-420" class="st11" width="38" height="193"/>
<rect x="633.9" y="-420" class="st12" width="38" height="193"/>
<rect x="721" y="-420" class="st13" width="38" height="193"/>
<rect x="808.2" y="-420" class="st14" width="38" height="193"/>
</svg>
